<?xml version="1.0" encoding="UTF-8" standalone="no"?>
<!-- Created with Inkscape (http://www.inkscape.org/) -->

<svg
   xmlns:dc="http://purl.org/dc/elements/1.1/"
   xmlns:cc="http://creativecommons.org/ns#"
   xmlns:rdf="http://www.w3.org/1999/02/22-rdf-syntax-ns#"
   xmlns:svg="http://www.w3.org/2000/svg"
   xmlns="http://www.w3.org/2000/svg"
   xmlns:inkscape="http://www.inkscape.org/namespaces/inkscape"
   version="1.1"
   width="553.75"
   height="130"
   id="svg2"
   xml:space="preserve"><metadata
     id="metadata8"><rdf:RDF><cc:Work
         rdf:about=""><dc:format>image/svg+xml</dc:format><dc:type
           rdf:resource="http://purl.org/dc/dcmitype/StillImage" /></cc:Work></rdf:RDF></metadata><defs
     id="defs6" /><g
     transform="matrix(1.25,0,0,-1.25,0,130)"
     id="g10"><g
       transform="scale(0.1,0.1)"
       id="g12"><path
         d="m 3914.84,277.07 c 50.55,31.442 77.23,78.36 80.04,140.7 -1.13,46.601 -17.11,85.351 -48,116.25 -30.9,30.859 -69.65,46.91 -116.29,48.011 -46.61,-1.101 -85.36,-17.152 -116.25,-48.011 -30.9,-30.899 -46.88,-69.649 -48.05,-116.25 1.72,-51.989 21.37,-93.829 58.98,-125.551 -91.25,20.511 -166.09,51.371 -224.49,92.703 -58.44,41.25 -101.68,79.726 -129.73,115.387 -28.39,35.703 -42.69,55.043 -43,58.121 l 5.47,10.98 c -12.9,11.762 -39.03,20.512 -78.32,26.129 -39.61,5.859 -67,4.891 -82.15,-2.961 -12.62,-7.898 -25.82,-13.519 -39.61,-16.879 -13.75,-3.32 -17.27,-10.078 -10.55,-20.199 4.77,-8.98 39.06,-43.672 102.81,-104.059 63.75,-60.39 150.12,-119.921 259.07,-178.589 109.21,-58.993 234.37,-90.704 375.31,-95.204 124.41,-1.988 228.47,-16.289 312.15,-43 C 4255.9,108 4318.98,81.1719 4361.37,54.2188 4403.79,27.2617 4425.27,12.5 4425.82,10 c 3.36,0.2695 -11.64,20.3516 -45.08,60.2305 -33.71,40.1605 -88.71,81.9885 -165.12,125.5075 -76.09,43.551 -176.36,70.66 -300.78,81.332"
         inkscape:connector-curvature="0"
         id="path14"
         style="fill:#2e3357;fill-opacity:1;fill-rule:evenodd;stroke:none" /><path
         d="m 2916.48,576.129 602.379,0 0,3.35938 -602.379,0 0,-3.35938 z"
         inkscape:connector-curvature="0"
         id="path16"
         style="fill:#8f8f8f;fill-opacity:1;fill-rule:evenodd;stroke:none" /><path
         d="m 2916.48,552.531 602.379,0 0,50.5469 -602.379,0 0,-50.5469 z"
         inkscape:connector-curvature="0"
         id="path18"
         style="fill:#cac27d;fill-opacity:1;fill-rule:evenodd;stroke:none" /><path
         d="m 3999.1,990.66 c -5.62,2.231 -10.82,2.11 -15.58,-0.43 -2.54,-2.261 -14.73,-9.14 -36.64,-20.66 -21.92,-11.761 -50,-18.519 -84.26,-20.199 -34.26,-1.723 -71.17,11.207 -110.78,38.75 -51.1,35.349 -100.98,50.549 -149.54,45.509 -48.32,-4.77 -88.47,-16.02 -120.5,-33.708 -32.27,-17.703 -49.96,-28.242 -53.09,-31.602 -8.67,-5.351 -11.21,-12.929 -7.54,-22.781 5.59,-8.391 13.21,-10.777 22.74,-7.109 2.77,2.781 18.51,12.5 47.18,29.07 28.95,16.52 64.89,27.34 107.82,32.422 43.28,5.348 87.5,-7.582 132.69,-38.75 27.23,-19.102 55.9,-31.063 85.94,-35.82 29.76,-4.774 55.19,-6.883 76.25,-6.332 0,-0.27 -2.7,-1.09 -8.01,-2.54 -5.35,-1.371 -8.01,-2.07 -8.01,-2.07 -15.7,-4.219 -34.53,-7.301 -56.44,-9.262 -21.92,-1.988 -44.77,1.532 -68.67,10.512 -60.9,21.328 -119.5,21.918 -175.63,1.68 -56.44,-20.469 -103.2,-45.352 -140.31,-74.57 -37.03,-29.18 -57.42,-46.329 -61.06,-51.372 12.35,-7.296 24.03,-15.738 34.96,-25.269 10.98,-9.258 16.84,-14.488 17.7,-15.59 0.27,1.68 11.68,13.481 34.1,35.359 22.5,22.18 54.65,44.25 96.49,66.172 41.83,21.871 91.95,33.711 150.39,35.391 37.03,-2.813 69.49,-4.922 97.3,-6.332 27.81,-1.68 79.61,14.449 155.43,48.441 -13.48,-14.609 -34.96,-31.879 -64.45,-51.8 -29.46,-19.961 -65.82,-30.899 -109.1,-32.891 -78.91,-1.68 -141.41,-13.629 -187.46,-35.777 -46.33,-21.922 -79.34,-43.832 -98.99,-65.743 -19.92,-21.879 -29.76,-33.519 -29.49,-34.961 26.99,-36.488 40.31,-56.179 40,-58.949 0.31,1.949 11.84,15.981 34.57,42.11 22.73,25.82 54.77,51.679 96.01,77.5 41.02,26.132 89.46,40.16 145.36,42.152 54.49,1.949 97.61,15.43 129.33,40.43 31.99,25.269 54.89,50.429 68.64,75.39 13.78,25.27 20.5,38.899 20.23,40.86 3.67,9.57 1.13,17.148 -7.58,22.769"
         inkscape:connector-curvature="0"
         id="path20"
         style="fill:#999999;fill-opacity:1;fill-rule:evenodd;stroke:none" /><path
         d="m 3178.95,830.148 c 1.99,19.93 12.89,30.903 32.85,32.852 20.23,-1.949 31.32,-12.922 33.28,-32.852 -0.28,-1.128 -0.43,-2.257 -0.43,-3.359 11.48,-1.398 22.62,-3.391 33.28,-5.891 0.55,3.043 0.82,6.172 0.82,9.25 -3.91,40.43 -26.21,62.622 -66.95,66.571 -40.47,-3.949 -62.62,-26.141 -66.57,-66.571 0,-3.078 0.28,-6.007 0.82,-8.859 10.71,2.539 21.8,4.371 33.33,5.5 -0.32,1.102 -0.43,2.231 -0.43,3.359"
         inkscape:connector-curvature="0"
         id="path22"
         style="fill:#cac27d;fill-opacity:1;fill-rule:evenodd;stroke:none" /><path
         d="m 3277.93,795.621 c -10.94,2.809 -22.03,4.77 -33.28,5.899 -10.94,1.371 -22.19,2.109 -33.67,2.109 -10.98,0 -21.64,-0.59 -32.03,-1.68 -11.25,-1.41 -22.35,-3.398 -33.29,-5.937 -70.46,-20.742 -123.71,-51.684 -159.68,-92.653 -36.18,-40.98 -54.34,-63.75 -54.34,-68.25 l 559.02,0 c -0.31,4.5 -18.28,27.11 -53.94,67.86 -35.94,40.703 -88.87,71.601 -158.79,92.652"
         inkscape:connector-curvature="0"
         id="path24"
         style="fill:#cac27d;fill-opacity:1;fill-rule:evenodd;stroke:none" /><path
         d="m 131.84,514.219 -46.4103,0 -15.1602,-85.469 -70.3085625,0 49.5273625,280.781 119.0627,0 c 29.379,0 50.32,-6.801 62.82,-20.312 9.059,-10.43 13.59,-23.68 13.59,-39.688 0,-5.551 -0.551,-11.25 -1.563,-17.191 L 235.59,588.281 C 231.719,566.719 220.27,548.941 201.211,535 182.23,521.129 159.102,514.219 131.84,514.219 z m 12.031,134.531 -35,0 -12.9726,-73.75 34.8396,0 c 21.25,0 33.602,9.449 37.032,28.43 l 2.66,16.101 c 0.511,2.258 0.781,5.348 0.781,9.219 0,3.941 -1.992,8.281 -5.941,12.969 -3.86,4.679 -11.008,7.031 -21.399,7.031 z M 331.09,478.59 c 5.941,0 11.25,1.289 15.941,3.91 L 345,438.43 c -12.191,-10.071 -26.09,-15.149 -41.719,-15.149 -23.672,0 -38.98,5.469 -45.941,16.399 -4.68,7.269 -7.031,15 -7.031,23.129 0,8.203 0.511,15.472 1.57,21.722 l 23.43,131.867 66.25,0 -21.868,-122.968 c -0.242,-1.559 -0.312,-2.961 -0.312,-4.211 0,-7.11 3.902,-10.629 11.711,-10.629 z m -47.969,201.25 c 0,16.64 3.68,28.789 11.098,36.41 7.383,7.691 18.902,11.559 34.531,11.559 21.762,0 32.66,-9.61 32.66,-28.75 0,-16.481 -3.711,-28.438 -11.101,-35.938 -7.418,-7.5 -19.02,-11.25 -34.84,-11.25 -21.559,0 -32.348,9.301 -32.348,27.969 z M 505.16,621.398 c 26.559,0 44.879,-7.027 55,-21.089 7.262,-9.61 10.93,-21.797 10.93,-36.559 0,-6.059 -0.699,-12.461 -2.031,-19.219 L 561.25,498.898 C 556.879,474.219 547.379,455.391 532.809,442.5 518.199,429.68 500,423.281 478.121,423.281 c -21.793,0 -36.949,5.821 -45.461,17.5 l -21.101,-120.472 -66.25,0 52.191,296.089 60.16,0 -2.039,-10.617 c 12.188,10.391 28.68,15.617 49.539,15.617 z M 464.531,479.371 c 7.27,0 14.059,2.348 20.309,7.027 6.25,4.692 10.16,11.723 11.719,21.102 l 5.16,29.219 c 0.511,2.57 0.781,5.82 0.781,9.679 0,3.954 -1.719,8.133 -5.16,12.5 -3.36,4.461 -9.18,6.723 -17.5,6.723 -13.551,0 -22.418,-3.242 -26.559,-9.691 l -11.722,-65.621 c 3.64,-7.309 11.293,-10.938 22.972,-10.938 z m 206.598,-56.09 c -54.059,0 -81.09,18.668 -81.09,56.09 0,5.199 0.512,10.82 1.563,16.879 l 8.128,48.281 c 4.45,25 15.969,44.141 34.532,57.5 18.629,13.438 43.277,20.149 73.898,20.149 52.27,0 78.442,-19.758 78.442,-59.211 0,-5.75 -0.551,-12 -1.563,-18.75 l -4.687,-27.66 -118.903,0 -1.57,-9.059 c -0.539,-3.129 -0.777,-6.02 -0.777,-8.602 0,-14.289 8.437,-21.398 25.308,-21.398 6.25,0 11.57,1.91 15.942,5.781 4.449,3.938 7.07,8.508 7.808,13.75 l 64.852,-0.781 C 764.34,447.578 730.391,423.281 671.129,423.281 z m 46.883,117.028 c 1.008,4.371 1.558,8.441 1.558,12.191 0,3.828 -1.718,7.691 -5.16,11.559 -3.359,3.941 -8.75,5.941 -16.25,5.941 -7.422,0 -14.18,-2.5 -20.308,-7.5 -6.051,-4.922 -10.231,-12.309 -12.5,-22.191 l 52.66,0 z m 276.91,36.25 c 0,-8.868 -1.524,-17.457 -4.531,-25.778 -2.93,-8.359 -5.782,-14.453 -8.59,-18.281 l -4.379,-5.469 -58.902,0 c 6.558,5.938 9.839,13.321 9.839,22.188 0,4.679 -1.519,8.511 -4.531,11.562 -3.047,3.008 -7.148,4.528 -12.348,4.528 -8.859,0 -16.519,-4.45 -22.96,-13.278 l -21.879,-123.281 -66.25,0 33.129,187.648 61.558,0 -4.527,-26.25 c 14.758,21.141 32.687,31.723 53.75,31.723 16.871,0 29.527,-4.062 37.969,-12.191 8.429,-8.039 12.652,-19.059 12.652,-33.121 z m 134.058,-66.25 -116.71,0 8.59,49.062 116.72,0 -8.6,-49.062 z m 133.13,-87.028 c -37.19,0 -62.93,8.047 -77.19,24.219 -9.92,11.441 -14.84,27.422 -14.84,47.969 0,8.82 0.86,18.32 2.65,28.429 l 16.1,89.692 c 11.64,65.82 53.9,98.75 126.72,98.75 30.07,0 52.97,-6.481 68.59,-19.371 15.63,-12.93 23.44,-30.547 23.44,-52.821 0,-10.429 -1.53,-20.777 -4.53,-31.089 -2.93,-10.231 -5.86,-17.809 -8.75,-22.809 l -4.22,-7.82 -69.06,0 c 8.51,9.89 12.81,23.949 12.81,42.191 0,9.57 -2.5,17.188 -7.5,22.809 -4.92,5.629 -12.15,8.441 -21.72,8.441 -26.25,0 -41.88,-14.609 -46.88,-43.75 l -13.59,-78.75 c -1.25,-6.793 -1.87,-13.402 -1.87,-19.84 0,-17.191 10.23,-25.781 30.78,-25.781 24.68,0 39.45,13.898 44.37,41.719 l 70.31,0 -2.03,-11.25 c -10.43,-60.629 -51.64,-90.938 -123.59,-90.938 z m 336.01,65.469 c 0,-6.801 3.44,-10.16 10.32,-10.16 6.87,0 12.65,1.289 17.34,3.91 l -2.03,-44.07 c -12.5,-10.071 -26.52,-15.149 -42.03,-15.149 -28.67,0 -44.53,10.391 -47.66,31.25 -13.04,-20.859 -32.15,-31.25 -57.34,-31.25 -42.62,0 -63.91,18.321 -63.91,55 0,6.25 0.63,13.117 1.88,20.617 l 8.28,45.633 c 4.14,23.438 13.67,42.071 28.59,55.938 15,13.941 34.53,20.929 58.6,20.929 24.06,0 40.35,-5.578 48.9,-16.718 l 1.88,11.718 59.37,0 -21.87,-122.968 c -0.24,-1.559 -0.32,-3.121 -0.32,-4.68 z m -115.46,18.75 c -0.55,-2.309 -0.78,-5.551 -0.78,-9.691 0,-4.18 1.91,-8.278 5.78,-12.34 3.94,-4.071 10.5,-6.098 19.68,-6.098 9.26,0 17.27,3.629 24.07,10.938 l 11.71,65.621 c -2.92,6.449 -9.68,9.691 -20.31,9.691 -20,0 -31.72,-9.652 -35.15,-28.902 l -5,-29.219 z m 249.06,-84.219 c -30.12,0 -51.84,6.758 -65.16,20.309 -9.92,9.879 -14.84,23.129 -14.84,39.691 0,5.508 0.51,11.399 1.56,17.649 l 26.56,150.941 71.41,29.527 -11.41,-65 107.66,0 -9.69,-55 -107.65,0 -7.82,-44.058 c -1.05,-5 -1.56,-9.449 -1.56,-13.281 0,-16.481 7.81,-24.688 23.44,-24.688 8.32,0 15.23,3.481 20.78,10.469 5.62,7.07 9.45,16.488 11.56,28.281 l 64.69,0 c -10.86,-63.242 -47.34,-94.84 -109.53,-94.84 z m 208.01,0 c -54.07,0 -81.1,18.668 -81.1,56.09 0,5.199 0.51,10.82 1.57,16.879 l 8.12,48.281 c 4.45,25 15.98,44.141 34.53,57.5 18.63,13.438 43.28,20.149 73.91,20.149 52.26,0 78.44,-19.758 78.44,-59.211 0,-5.75 -0.55,-12 -1.57,-18.75 l -4.68,-27.66 -118.91,0 -1.56,-9.059 c -0.55,-3.129 -0.78,-6.02 -0.78,-8.602 0,-14.289 8.43,-21.398 25.31,-21.398 6.25,0 11.56,1.91 15.94,5.781 4.45,3.938 7.07,8.508 7.81,13.75 l 64.84,-0.781 c -8.67,-48.672 -42.62,-72.969 -101.87,-72.969 z m 46.87,117.028 c 1.02,4.371 1.56,8.441 1.56,12.191 0,3.828 -1.71,7.691 -5.15,11.559 -3.36,3.941 -8.75,5.941 -16.25,5.941 -7.42,0 -14.18,-2.5 -20.31,-7.5 -6.06,-4.922 -10.24,-12.309 -12.5,-22.191 l 52.65,0 z m 276.92,36.25 c 0,-8.868 -1.53,-17.457 -4.54,-25.778 -2.93,-8.359 -5.78,-14.453 -8.59,-18.281 l -4.37,-5.469 -58.91,0 c 6.56,5.938 9.84,13.321 9.84,22.188 0,4.679 -1.52,8.511 -4.53,11.562 -3.04,3.008 -7.15,4.528 -12.34,4.528 -8.87,0 -16.53,-4.45 -22.97,-13.278 l -21.88,-123.281 -66.25,0 33.13,187.648 61.56,0 -4.53,-26.25 c 14.77,21.141 32.7,31.723 53.75,31.723 16.88,0 29.53,-4.062 37.97,-12.191 8.44,-8.039 12.66,-19.059 12.66,-33.121 z m 92.34,-97.969 c 5.94,0 11.25,1.289 15.94,3.91 l -2.03,-44.07 c -12.19,-10.071 -26.1,-15.149 -41.72,-15.149 -23.67,0 -38.99,5.469 -45.94,16.399 -4.69,7.269 -7.03,15 -7.03,23.129 0,8.203 0.51,15.472 1.56,21.722 l 23.44,131.867 66.25,0 -21.88,-122.968 c -0.23,-1.559 -0.31,-2.961 -0.31,-4.211 0,-7.11 3.91,-10.629 11.72,-10.629 z m -47.97,201.25 c 0,16.64 3.67,28.789 11.09,36.41 7.39,7.691 18.91,11.559 34.54,11.559 21.75,0 32.65,-9.61 32.65,-28.75 0,-16.481 -3.71,-28.438 -11.09,-35.938 -7.42,-7.5 -19.03,-11.25 -34.85,-11.25 -21.56,0 -32.34,9.301 -32.34,27.969 z m 212.34,-131.41 c 0,11.25 -5.43,16.879 -16.25,16.879 -10.86,0 -19.76,-4.059 -26.71,-12.188 l -21.88,-124.371 -66.25,0 33.13,187.648 61.56,0 -4.22,-23.117 c 15.31,19.059 34.69,28.59 58.12,28.59 23.44,0 38.64,-5.742 45.63,-17.191 4.37,-7.301 6.56,-15.621 6.56,-25 0,-9.371 -0.62,-18.078 -1.87,-26.09 l -10.47,-60.16 c -0.31,-1.559 -0.47,-2.961 -0.47,-4.211 0,-7.11 3.91,-10.629 11.72,-10.629 5.94,0 11.25,1.289 15.94,3.91 l -1.88,-44.07 c -12.3,-10.071 -26.21,-15.149 -41.72,-15.149 -35.43,0 -53.12,14.84 -53.12,44.528 0,5.191 0.5,10.781 1.56,16.722 l 9.37,51.867 c 0.82,4.692 1.25,8.68 1.25,12.032 z M 2797.81,422.5 c -5.74,-33.012 -18.83,-59.102 -39.22,-78.281 -20.43,-19.258 -43.75,-28.91 -70,-28.91 -26.25,0 -45.15,4.8 -56.71,14.371 -11.57,9.609 -17.35,22.191 -17.35,37.82 0,22.93 14.57,42.809 43.75,59.68 -22.19,6.961 -33.28,23.75 -33.28,50.32 0,6.441 0.66,13.59 2.03,21.398 l 7.81,45.633 c 4.14,23.438 13.75,42.071 28.75,55.938 15.08,13.941 34.69,20.929 58.75,20.929 24.07,0 40.51,-5.859 49.38,-17.5 l 2.34,12.5 58.13,0 -34.38,-193.898 z m -102.97,85 c -0.54,-2.309 -0.78,-5.551 -0.78,-9.691 0,-4.18 1.92,-8.278 5.78,-12.34 3.95,-4.071 10.51,-6.098 19.69,-6.098 9.26,0 17.27,3.629 24.06,10.938 l 11.72,65.621 c -3.67,6.449 -10.58,9.691 -20.78,9.691 -10.12,0 -18.05,-2.621 -23.75,-7.812 -5.62,-5.231 -9.22,-12.27 -10.78,-21.09 l -5.16,-29.219 z m 2.82,-136.41 c 16.87,0 27.89,15.308 33.12,45.941 l 3.91,22.649 c -36.17,-16.871 -54.22,-33.899 -54.22,-51.09 0,-5.192 1.44,-9.41 4.37,-12.66 3.01,-3.2 7.27,-4.84 12.82,-4.84"
         inkscape:connector-curvature="0"
         id="path26"
         style="fill:#303357;fill-opacity:1;fill-rule:nonzero;stroke:none" /></g></g></svg>